<svg xmlns="http://www.w3.org/2000/svg" width="1200" height="630" viewBox="0 0 1200 630">
  <defs>
    <pattern id="dgrid" width="24" height="24" patternUnits="userSpaceOnUse">
      <circle cx="1" cy="1" r="1" fill="#1f3046"/>
    </pattern>
    <radialGradient id="ping" cx="50%" cy="50%" r="50%">
      <stop offset="0%" stop-color="#34d399" stop-opacity="0.55"/>
      <stop offset="100%" stop-color="#34d399" stop-opacity="0"/>
    </radialGradient>
  </defs>
  <rect width="1200" height="630" fill="#070d18"/>
  <rect width="1200" height="630" fill="url(#dgrid)"/>
  <g stroke="#1f3046" stroke-width="1">
    <line x1="0" y1="80" x2="1200" y2="80"/>
    <line x1="0" y1="550" x2="1200" y2="550"/>
    <line x1="600" y1="80" x2="600" y2="550"/>
  </g>
  <g font-family="sans-serif" fill="#6f8aa8">
    <text x="40" y="50" font-size="14" letter-spacing="3" fill="#34d399">● LIVE</text>
    <text x="100" y="50" font-size="14" letter-spacing="3">SOLRADAR · DEPIN FLEET TELEMETRY</text>
    <text x="1160" y="50" font-size="14" letter-spacing="2" text-anchor="end">v0.2 · 124 nodes</text>
  </g>
  <g font-family="sans-serif">
    <text x="40" y="190" font-size="100" font-weight="700" fill="#e6f0fb" letter-spacing="-3">SolRadar</text>
    <text x="40" y="250" font-size="34" font-weight="500" fill="#9ec6e8">DePIN telemetry. Real on-chain. Free forever.</text>
  </g>
  <g transform="translate(40,310)" font-family="sans-serif">
    <rect x="0" y="0" width="170" height="92" rx="8" fill="#0e1a2a" stroke="#1f3046"/>
    <text x="16" y="26" font-size="13" fill="#34d399" letter-spacing="2">HELIUM</text>
    <text x="16" y="60" font-size="32" font-weight="700" fill="#e6f0fb">62</text>
    <text x="16" y="82" font-size="12" fill="#6f8aa8">hotspots</text>
    <rect x="184" y="0" width="170" height="92" rx="8" fill="#0e1a2a" stroke="#1f3046"/>
    <text x="200" y="26" font-size="13" fill="#22d3ee" letter-spacing="2">HIVEMAPPER</text>
    <text x="200" y="60" font-size="32" font-weight="700" fill="#e6f0fb">38</text>
    <text x="200" y="82" font-size="12" fill="#6f8aa8">dashcams</text>
    <rect x="368" y="0" width="170" height="92" rx="8" fill="#0e1a2a" stroke="#1f3046"/>
    <text x="384" y="26" font-size="13" fill="#fb923c" letter-spacing="2">RENDER</text>
    <text x="384" y="60" font-size="32" font-weight="700" fill="#e6f0fb">24</text>
    <text x="384" y="82" font-size="12" fill="#6f8aa8">GPUs</text>
  </g>
  <g transform="translate(40,420)" font-family="sans-serif" font-size="13" fill="#6f8aa8">
    <text x="0" y="0" letter-spacing="2">UPTIME</text>
    <rect x="0" y="10" width="540" height="6" fill="#152234"/>
    <rect x="0" y="10" width="514" height="6" fill="#34d399"/>
    <text x="0" y="38" letter-spacing="2">EARNINGS · 30D</text>
    <rect x="0" y="48" width="540" height="6" fill="#152234"/>
    <rect x="0" y="48" width="378" height="6" fill="#22d3ee"/>
    <text x="544" y="22" fill="#34d399">95.2%</text>
    <text x="544" y="60" fill="#22d3ee">$1,247</text>
  </g>
  <g transform="translate(720,140)" fill="none">
    <circle cx="200" cy="200" r="200" stroke="#1f3046" stroke-width="1"/>
    <circle cx="200" cy="200" r="140" stroke="#1f3046" stroke-width="1"/>
    <circle cx="200" cy="200" r="80" stroke="#1f3046" stroke-width="1"/>
    <line x1="0" y1="200" x2="400" y2="200" stroke="#1f3046"/>
    <line x1="200" y1="0" x2="200" y2="400" stroke="#1f3046"/>
    <line x1="58" y1="58" x2="342" y2="342" stroke="#152234"/>
    <line x1="342" y1="58" x2="58" y2="342" stroke="#152234"/>
    <circle cx="170" cy="120" r="20" fill="url(#ping)"/>
    <circle cx="170" cy="120" r="5" fill="#34d399"/>
    <circle cx="280" cy="160" r="14" fill="url(#ping)"/>
    <circle cx="280" cy="160" r="4" fill="#22d3ee"/>
    <circle cx="120" cy="240" r="18" fill="url(#ping)"/>
    <circle cx="120" cy="240" r="5" fill="#fb923c"/>
    <circle cx="250" cy="280" r="12" fill="url(#ping)"/>
    <circle cx="250" cy="280" r="4" fill="#34d399"/>
  </g>
  <text x="40" y="595" font-family="sans-serif" font-size="13" fill="#3a5570" letter-spacing="3">depin-radar.vercel.app</text>
</svg>
